<?xml version="1.0" standalone="no"?>
<!DOCTYPE svg PUBLIC "-//W3C//DTD SVG 20010904//EN"
 "http://www.w3.org/TR/2001/REC-SVG-20010904/DTD/svg10.dtd">
<svg version="1.0" xmlns="http://www.w3.org/2000/svg"
 width="300.000000pt" height="143.000000pt" viewBox="0 0 300.000000 143.000000"
 preserveAspectRatio="xMidYMid meet">
<metadata>
Created by potrace 1.10, written by Peter Selinger 2001-2011
</metadata>
<g transform="translate(0.000000,143.000000) scale(0.100000,-0.100000)"
fill="#000000" stroke="none">
<path d="M384 1406 c-17 -8 -41 -26 -53 -42 -22 -28 -22 -30 -19 -358 l3 -331
28 -58 c37 -74 107 -144 183 -182 54 -27 68 -30 159 -30 89 0 107 3 160 28 79
37 156 114 192 191 24 53 28 73 28 156 0 82 -4 103 -27 152 -37 80 -107 152
-187 191 -58 28 -75 32 -151 32 -47 0 -97 -3 -112 -8 l-28 -7 0 87 c0 103 -17
146 -71 175 -40 21 -63 22 -105 4z m124 -52 c13 -15 23 -38 22 -53 -1 -14 -2
-54 -1 -88 1 -88 8 -92 128 -86 84 4 106 2 156 -17 31 -12 57 -26 57 -31 0 -6
4 -8 9 -4 16 9 111 -92 132 -141 27 -61 32 -87 31 -164 -4 -315 -404 -464
-616 -229 -21 23 -50 67 -65 98 l-26 56 -2 310 c-2 333 1 349 51 374 36 17 98
5 124 -25z"/>
<path d="M655 927 c-103 -34 -148 -137 -95 -222 64 -104 189 -106 256 -5 22
33 26 48 22 88 -9 96 -101 166 -183 139z m79 -31 c41 -17 74 -58 82 -102 12
-66 -56 -144 -126 -144 -61 0 -130 68 -130 128 0 45 30 90 73 111 50 25 57 25
101 7z"/>
<path d="M1193 1405 c-18 -8 -42 -29 -53 -47 -19 -32 -20 -50 -20 -451 0 -459
0 -461 60 -492 16 -8 47 -15 70 -15 32 0 48 7 78 34 l37 34 3 429 c2 405 1
430 -17 459 -19 31 -75 64 -108 64 -10 -1 -33 -7 -50 -15z m91 -25 c57 -21 57
-20 56 -477 l0 -418 -29 -28 c-31 -31 -81 -39 -120 -18 -48 26 -49 38 -48 480
l2 413 33 29 c34 30 63 36 106 19z"/>
<path d="M1707 1150 c-126 -32 -224 -131 -262 -265 -26 -87 -16 -198 23 -277
l29 -60 -28 -76 c-16 -42 -27 -78 -24 -80 2 -2 40 10 84 26 l80 31 48 -22 c39
-18 66 -22 143 -22 84 0 102 3 157 29 76 35 144 104 181 184 24 50 27 69 27
162 0 94 -3 111 -28 166 -58 126 -178 205 -317 210 -41 2 -92 -1 -113 -6z
m230 -36 c21 -10 41 -18 44 -18 3 -1 12 -8 21 -16 9 -8 25 -22 37 -30 36 -25
84 -110 101 -178 21 -85 12 -182 -23 -254 -28 -58 -110 -148 -133 -148 -8 0
-14 -4 -14 -9 0 -8 -12 -13 -70 -28 -8 -2 -46 -7 -85 -10 -55 -4 -83 -1 -132
16 -77 26 -85 26 -150 1 l-53 -20 0 23 c0 13 3 27 7 31 4 3 8 12 10 19 1 7 5
24 9 38 4 17 -1 41 -14 65 -48 97 -55 243 -16 329 44 96 149 187 237 204 62
12 180 4 224 -15z"/>
<path d="M2493 1146 c-101 -33 -187 -108 -240 -208 -26 -48 -28 -62 -28 -158
0 -95 3 -110 28 -163 36 -72 109 -144 184 -182 52 -26 68 -30 153 -30 52 0
105 4 118 8 19 7 22 5 22 -17 0 -60 -40 -109 -111 -135 -116 -43 -118 -200 -3
-240 36 -13 47 -12 95 3 116 37 210 128 250 242 18 51 20 78 17 333 -3 276 -3
276 -30 333 -37 79 -108 152 -184 189 -51 25 -78 32 -146 35 -54 3 -98 -1
-125 -10z m259 -49 c106 -52 177 -145 199 -261 5 -28 8 -159 6 -291 -3 -229
-4 -242 -27 -290 -50 -105 -119 -168 -221 -200 -69 -22 -104 -13 -136 35 -41
60 -10 125 72 152 53 18 105 85 105 138 0 45 -16 61 -56 53 -16 -3 -63 -6
-105 -5 -63 0 -86 5 -134 28 -77 38 -135 91 -170 155 -25 46 -30 68 -33 146
-3 66 0 105 11 137 34 98 111 176 216 217 73 28 200 22 273 -14z"/>
<path d="M2527 910 c-51 -28 -77 -73 -77 -134 0 -119 138 -196 230 -128 64 48
88 129 56 190 -43 83 -132 113 -209 72z m140 -30 c40 -24 56 -54 56 -105 0
-99 -105 -157 -190 -105 -74 45 -83 139 -19 197 43 40 102 45 153 13z"/>
<path d="M54 606 c-28 -28 -34 -42 -34 -75 0 -85 56 -138 133 -128 72 10 120
82 103 153 -4 15 -21 40 -38 56 -25 23 -39 28 -80 28 -44 0 -54 -4 -84 -34z
m133 -5 c50 -26 59 -106 18 -147 -21 -21 -33 -25 -72 -22 -41 3 -50 7 -70 37
-33 49 -23 104 25 133 29 18 65 18 99 -1z"/>
</g>
</svg>
